<svg version="1.1" xmlns="http://www.w3.org/2000/svg" viewBox="0 12 541.5 125.1">
    <path stroke="transparent" fill="#98C220"
          d="M224.2,31c6,0,10.8-4.8,10.8-10.8c0-6-4.8-10.8-10.8-10.8c-6,0-10.8,4.8-10.8,10.8C213.4,26.2,218.2,31,224.2,31L224.2,31z"/>
    <path stroke="transparent"
          d="M233.5,40.3c8.2,0,15.2,3,21,8.8c5.7,5.8,8.6,12.9,8.6,21.1v33.5c0.8-0.5,1.6-1.1,2.4-1.9c2.3-2.3,3.4-4.8,3.4-8V70.3c0-8.2,2.9-15.3,8.6-21.1c5.7-5.9,12.8-8.8,21-8.8c8.2,0,15.2,3,20.9,8.9c5.6,5.8,8.5,12.9,8.5,21.1v23.6c0,3.2,1.1,5.7,3.4,8c0.8,0.8,1.6,1.4,2.4,1.9V70.3c0-9.7-3.4-17.8-10.3-24.6c-6.9-6.9-15.1-10.2-24.9-10.2c-5.4,0-10.6,1.2-15.5,3.6c-4.9,2.4-9,5.8-12.4,10.1l-4.4,5.6l-4.4-5.6c-3.4-4.3-7.7-7.7-12.6-10.2c-4.9-2.4-10.1-3.6-15.5-3.6"/>
    <path stroke="transparent" fill="#98C220"
          d="M215.6,73.7c0.2,9.5,4,13.4,7.9,15c1.8-2.1,5.9-8.3,5.9-18.1l-0.1-35.2c-3.7,0-6.9,1.3-9.6,4.1c-2.7,2.8-3.9,7.1-3.9,11.1l-0.2,20.1"/>
    <path stroke="transparent"
          d="M214.2,76.3c-0.9,2.9-2.5,5.5-4.8,7.8c-3.9,4-8.6,6-14.2,6c-5.6,0-10.4-2-14.3-6c-3.9-4-5.9-8.8-5.9-14.4V49.9c0-3.9-1.4-7.3-4.2-10.1c-2.8-2.8-6.2-4.5-10.1-4.5v34.4c0,5.6-2,10.4-5.9,14.4c-3.9,4-8.7,6-14.3,6c-5.6,0-10.3-2-14.2-6c-3.9-4-5.9-8.8-5.9-14.4V49.9c0-3.9-1.4-7.3-4.2-10.1c-2.8-2.8-6.2-4.6-10.1-4.6v34.5c0,9.4,3.4,17.4,10.1,24c6.7,6.6,14.8,9.9,24.2,9.9c5.3,0,10.3-1.2,15.1-3.5c4.8-2.4,8.9-5.6,12.3-9.8c3.3,4.2,7.3,7.5,12.1,9.8c4.8,2.4,9.8,3.5,15.1,3.5c9.5,0,17.6-3.3,24.3-9.9c1.1-1.1,2.1-2.2,3-3.4C218.7,88.4,214.8,84.4,214.2,76.3L214.2,76.3z M89.1,99.5c2.8,2.8,6.2,4.2,10.1,4.2V49.9c0-3.9-1.4-7.3-4.2-10.1c-2.8-2.8-6.2-4.5-10.1-4.5v54C84.9,93.3,86.3,96.7,89.1,99.5L89.1,99.5zM63.8,103.7h14.3v-6c0-5.4-1.2-10.5-3.7-15.3c-2.5-4.8-5.9-8.8-10.3-12c4.4-3.2,7.8-7.2,10.3-12c2.5-4.8,3.7-9.9,3.7-15.4v-7.7H63.8V43c0,5.6-2,10.4-5.9,14.5c-3.9,4.1-8.6,6.1-14.2,6.1H24.9V49.9c0-3.9-1.4-7.3-4.2-10.1c-2.8-2.8-6.2-4.2-10.1-4.2v68.1h14.3V77.1h18.9c5.6,0,10.3,2,14.2,6.1c3.9,4.1,5.9,8.9,5.9,14.5V103.7L63.8,103.7z"/>
    <path stroke-width="2" stroke-miterlimit="7.8935"
          d="M404.8,36.1h-3.1v19.5c-2.8-5.9-6.9-10.6-12.4-14.1c-5.4-3.5-11.4-5.2-17.9-5.2c-9.3,0-17.2,3.3-23.8,9.8c-6.4,6.4-9.7,14.3-9.7,23.6c0,9.3,3.2,17.2,9.7,23.8c6.5,6.4,14.4,9.7,23.8,9.7c6.5,0,12.5-1.7,17.9-5.2c5.4-3.5,9.6-8.2,12.4-14.1v19.3l3.1,0.1V36.1L404.8,36.1z M392.8,91.3c-6,5.9-13.2,8.8-21.4,8.8c-8.5,0-15.7-2.9-21.5-8.8c-5.9-5.9-8.8-13-8.8-21.5c0-8.5,2.9-15.7,8.8-21.5c5.9-5.9,13-8.8,21.5-8.8c7.3,0,13.7,2.3,19.2,6.8c5.6,4.5,9.1,10.4,10.5,17.4c0.2,1.2,0.3,2.2,0.4,3.3c0.1,1,0.2,2,0.2,2.9C401.7,78.2,398.7,85.4,392.8,91.3L392.8,91.3L392.8,91.3z M469.1,46.1c-6.4-6.5-14.3-9.8-23.6-9.8c-6.5,0-12.5,1.7-17.9,5.2c-5.4,3.5-9.6,8.2-12.4,14.1V36h-3.1v78.6h3.1V83.9c2.8,5.9,6.9,10.6,12.4,14.1c5.4,3.5,11.4,5.2,17.9,5.2c9.4,0,17.3-3.2,23.8-9.7c6.4-6.4,9.7-14.4,9.7-23.8C478.9,60.4,475.7,52.6,469.1,46.1L469.1,46.1L469.1,46.1z M467,91.3c-5.9,5.9-13,8.8-21.5,8.8c-7.8,0-14.8-2.8-21-8.4c-6.2-5.7-9.3-12.4-9.3-20.2v-3.6c0-8.1,3-14.8,9-20.3c6-5.4,13.1-8.2,21.3-8.2c8.4,0,15.5,3,21.4,8.9c5.9,5.9,8.9,13,8.9,21.4C475.8,78.3,472.9,85.4,467,91.3L467,91.3L467,91.3z M509.5,66.6c-11.1-1.5-16.9-5.5-17.6-12.1c-0.4-4.7,1.5-8.6,5.8-11.6c2.7-2,5.7-3.1,8.8-3.3c6-0.5,10.8,1.8,14.5,6.9h4c-4.7-7.1-10.9-10.4-18.7-9.9c-3.8,0.2-7.2,1.5-10.3,3.8c-4.5,3.4-6.8,7.6-6.9,12.6c-0.2,5.4,2,9.4,6.6,12.3c2.2,1.3,4.5,2.3,6.9,3c0.7,0.2,1.6,0.4,2.8,0.6c1.2,0.2,2.7,0.5,4.5,0.8c12,1.9,18.1,7.1,18.1,15.7c0,4.5-2.1,8.2-6.2,11.1c-3.9,2.7-8.1,4.1-12.6,4.1c-3.2,0-6.2-0.5-8.8-1.4c-2.7-0.9-5-2.3-6.9-4c-1.9-1.7-3.4-3.9-4.5-6.4c-1.1-2.5-1.6-5.4-1.6-8.6v-0.1h-3.1V80c0,7.2,2.3,12.9,7.1,17.2c4.7,4.2,10.6,6.3,17.8,6.3c5.6,0,10.6-1.7,14.8-4.9c4.7-3.5,7.1-8,7.1-13.5C531,74.7,523.8,68.5,509.5,66.6L509.5,66.6L509.5,66.6z"/>
</svg>